<svg width="73" height="44" viewBox="0 0 73 44" fill="none" xmlns="http://www.w3.org/2000/svg">
<path fill-rule="evenodd" clip-rule="evenodd" d="M24.7357 4.71336V35.0497C25.2386 35.1253 25.7608 35.1637 26.3604 35.1637C30.8869 35.1637 31.7967 33.8471 31.7967 31.5576V0.172121C31.2545 0.057132 30.6741 3.05176e-05 30.0938 3.05176e-05C25.5286 3.05176e-05 24.7357 2.40453 24.7357 4.71336ZM40.8396 11.9628L32.1348 21.3507L39.1372 32.2256C40.4336 34.2096 42.1357 35.2207 44.9027 35.2207C46.7211 35.2207 48.2297 34.8014 48.9259 34.4773L40.4914 21.9415L46.4691 15.6841L56.277 30.8711L50.2991 43.2921C50.8991 43.5965 52.1177 43.9592 53.6459 43.9977C56.277 44.0547 57.7088 43.0629 58.7726 40.7347L72.875 9.71207C72.2948 9.4064 70.9988 9.06331 69.9539 9.04389C68.1357 9.00611 65.6981 9.36867 64.1505 13.0319L59.5854 23.6585L50.6285 9.27291C50.0481 9.10079 48.6355 8.85332 47.6103 8.85332C44.438 8.85332 42.6776 9.99801 40.8396 11.9628ZM8.49248 9.08253C9.69354 8.95319 10.969 8.90139 12.2445 8.90137H12.2448C15.4887 8.90137 18.7355 9.23637 20.7767 9.48285C20.8732 9.95942 20.9313 10.4177 20.9313 10.9138C20.9313 14.634 18.9388 15.4357 17.0236 15.4357C16.3933 15.4357 15.6137 15.3866 14.723 15.3305C13.5358 15.2557 12.1512 15.1686 10.6592 15.1686C8.0088 15.1686 6.90607 15.8938 6.90607 16.771C6.90607 17.7058 7.95069 18.0875 9.61438 18.3739L14.8182 19.328C20.1574 20.3006 22.4597 23.2966 22.4597 26.9785C22.4597 31.252 19.6351 34.3623 13.8897 34.9734C9.73066 35.4123 3.71416 34.8968 0.851086 34.5721C0.754576 34.1147 0.67727 33.5423 0.67727 33.0843C0.67727 29.3637 2.70838 28.5053 4.62342 28.5053C5.58181 28.5053 6.80411 28.5846 8.07305 28.667C9.44264 28.756 10.8666 28.8484 12.0716 28.8484C14.644 28.8484 15.418 27.99 15.418 27.17C15.418 26.1009 14.3926 25.6626 12.4004 25.2806L6.94479 24.2501C2.41785 23.3917 0 20.3006 0 17.0194C0 13.0319 2.86315 9.69262 8.49248 9.08253Z" fill="url(#paint0_linear_457_38)"/>
<path fill-rule="evenodd" clip-rule="evenodd" d="M22.1983 24.9817C21.4605 22.2573 19.1294 20.1492 14.8182 19.3624L9.61438 18.4066C7.95069 18.1198 6.9061 17.7375 6.9061 16.8009C6.9061 15.9221 8.0088 15.1956 10.6592 15.1956C13.2707 15.1956 15.5533 15.4632 17.0236 15.4632C18.9388 15.4632 20.9313 14.6601 20.9313 10.9333C20.9313 10.4363 20.8733 9.97718 20.7767 9.49977C17.9328 9.15574 12.7481 8.63959 8.49248 9.09874C2.86315 9.70991 0 13.0552 0 17.0497C0 19.1966 1.03197 21.2618 3.00871 22.6761C3.02419 22.6872 3.03962 22.6981 3.05504 22.7093C3.207 22.8192 3.48561 22.9992 3.67213 23.1057C5.85449 24.3192 10.6157 24.6846 12.8334 24.3767C14.2109 24.1854 17.159 23.776 18.659 23.5677C20.1182 23.3651 21.7907 23.6612 22.1983 24.9817V24.9817ZM24.7358 4.72111V25C24.7358 24.6391 24.7526 24.578 24.7646 24.2536C24.7955 23.4185 25.4286 22.6276 26.5061 22.478C27.2746 22.3713 29.4867 22.064 30.146 21.9725C30.7021 21.8953 31.6529 21.5005 31.7966 20.4687V0.172372C31.2546 0.0572288 30.6741 0 30.0939 0C25.5286 0 24.7358 2.40848 24.7358 4.72111V4.72111ZM50.6285 9.28945C50.0482 9.11703 48.6355 8.86911 47.6103 8.86911C44.438 8.86911 42.6785 10.0151 40.8405 11.9832L32.1348 21.3888C32.1348 21.3888 32.7682 21.6085 33.5624 21.4982C34.0793 21.4265 39.6554 20.6522 40.5565 20.527C41.4014 20.4097 42.3876 19.9922 43.0621 19.2849L46.4691 15.7121L48.2391 18.4577C48.6419 19.0824 49.5932 19.272 50.4698 19.1502C50.6834 19.1206 54.263 18.6235 54.8249 18.5455C55.4377 18.4604 56.5011 18.7381 56.8219 19.2543L50.6285 9.28945ZM72.875 9.7294L70.2859 15.4366C70.0428 15.9743 69.2751 16.5408 68.5604 16.6397C68.2281 16.6857 63.4506 17.3493 63.4506 17.3493C62.8625 17.4309 62.0596 17.9325 61.7991 18.5398C61.5811 19.0481 64.1505 13.0547 64.1505 13.0547C65.6981 9.38539 68.1355 9.02223 69.9538 9.06008C70.9987 9.07956 72.2947 9.42321 72.875 9.7294V9.7294Z" fill="white" fill-opacity="0.3"/>
<defs>
<linearGradient id="paint0_linear_457_38" x1="15.4979" y1="-1.54662" x2="60.9373" y2="44.1069" gradientUnits="userSpaceOnUse">
<stop offset="0.0500039" stop-color="#FF8C00"/>
<stop offset="0.25" stop-color="#F80032"/>
<stop offset="0.450003" stop-color="#FF00A0"/>
<stop offset="0.649996" stop-color="#8C28FF"/>
<stop offset="0.820004" stop-color="#0023FF"/>
<stop offset="0.96" stop-color="#19A0FF"/>
</linearGradient>
</defs>
</svg>
