<?xml version="1.0" encoding="UTF-8"?>
<svg id="Livello_1" xmlns="http://www.w3.org/2000/svg" version="1.1" viewBox="0 0 72 44">
  <!-- Generator: Adobe Illustrator 29.3.0, SVG Export Plug-In . SVG Version: 2.1.0 Build 146)  -->
  <defs>
    <style>
      .st0 {
        fill: #fff;
        fill-rule: evenodd;
      }
    </style>
  </defs>
  <path id="logo" class="st0" d="M24.4,4.7v30.3c.5,0,1,.1,1.6.1,4.5,0,5.4-1.3,5.4-3.6V.2C30.9,0,30.3,0,29.7,0,25.2,0,24.4,2.4,24.4,4.7ZM40.3,12l-8.6,9.4,6.9,10.9c1.3,2,3,3,5.7,3s3.3-.4,4-.7l-8.3-12.5,5.9-6.3,9.7,15.2-5.9,12.4c.6.3,1.8.7,3.3.7,2.6,0,4-.9,5.1-3.3l13.9-31c-.6-.3-1.9-.6-2.9-.7-1.8,0-4.2.3-5.7,4l-4.5,10.6-8.8-14.4c-.6-.2-2-.4-3-.4-3.1,0-4.9,1.1-6.7,3.1ZM12.1,8.9c-1.3,0-2.5,0-3.7.2C2.8,9.7,0,13,0,17s2.4,6.4,6.9,7.2l5.4,1c2,.4,3,.8,3,1.9s-.8,1.7-3.3,1.7-5.4-.3-7.4-.3-3.9.9-3.9,4.6,0,1,.2,1.5c2.8.3,8.8.8,12.9.4,5.7-.6,8.5-3.7,8.5-8s-2.3-6.7-7.5-7.7l-5.1-1c-1.6-.3-2.7-.7-2.7-1.6s1.1-1.6,3.7-1.6,4.8.3,6.3.3,3.9-.8,3.9-4.5,0-1-.2-1.4c-2-.2-5.2-.6-8.4-.6h0Z"/>
</svg>